# This file uses centimeters as units for non-parametric coordinates.

mtllib StoneBrick.mtl
v -5.078117 8.646560 -8.081349
v -4.940787 1.380449 -8.433064
v -4.873177 1.048004 8.825896
v -4.750923 9.209096 9.009003
v -0.647081 1.526512 -9.740701
v 4.680143 0.915281 -8.412183
v 4.949169 9.260582 -8.840290
v 5.053900 8.950952 8.435131
v 4.785196 0.807510 8.283982
v 4.153031 9.207699 9.710065
v -3.975633 9.180787 9.638553
v -4.078322 0.971545 9.595444
v 4.342465 1.315997 9.529565
v 2.657269 0.284394 8.871614
v -4.202678 0.610024 9.212786
v -4.571328 0.493814 -8.455353
v 3.590414 0.353455 -8.249314
v 4.133202 10.151229 -8.848036
v -3.970483 10.014881 -8.996617
v -4.475547 9.815024 9.009089
v 3.962268 9.925988 9.213961
v -4.820176 3.660214 -8.034158
v -4.908075 5.269111 8.905080
v -4.440911 1.869515 -9.659800
v -4.019912 3.356775 -9.756645
v 0.023246 3.960708 -9.618491
v -4.243494 0.929223 -9.472626
v -1.508780 0.748331 -9.623952
v -0.692947 0.219728 -8.220888
v -1.265146 0.484994 8.484491
v -1.334227 0.304519 -8.912565
v -4.234379 0.439051 -9.060807
v 3.556754 0.487132 -4.958119
v -0.593645 0.048634 -4.940606
v -4.422734 0.481640 -4.824308
v 4.207965 0.372182 -8.251595
v 4.564248 0.467428 -4.984679
v 4.833596 0.855914 -4.989521
v 4.919959 9.359651 -4.772418
v 3.521080 -0.063327 0.692429
v -0.388132 0.363125 1.123451
v -4.413608 0.395129 1.581165
v 4.721080 0.631232 0.433922
v 4.910820 9.131461 -0.935897
v 4.177884 0.213114 0.534738
v 4.037612 0.234735 7.620244
v 3.128134 0.795951 9.451322
v 4.714136 9.923085 7.977422
v 0.140797 1.433803 9.584966
v 0.540908 9.433629 9.394630
v -4.047757 5.144375 9.660321
v 0.474605 5.249060 9.431551
v 4.537415 5.258148 9.640796
v 4.871782 5.071514 8.349966
v 4.802665 4.774061 -0.235744
v 4.746507 4.592718 -4.888276
v 5.229571 4.673640 -8.896935
v 3.499533 0.371295 -9.350738
v 4.602813 1.269545 -9.607022
v 4.434227 4.391915 -9.814744
v 0.010813 9.474729 -9.903440
v 4.460501 8.790121 -9.673379
v -3.761618 9.562833 -9.535069
v -4.775248 7.113047 -9.360126
v -4.714994 9.609777 -8.484328
v 0.578689 10.005170 9.054031
v 3.662724 9.712825 -9.692175
v 4.393669 10.095189 -4.684642
v 3.912519 9.978944 -0.576697
v -4.944245 1.187426 1.704708
v -4.975661 5.373223 0.952297
v -4.780854 9.385557 1.170367
v -4.245506 9.875421 1.134073
v -4.842967 1.337907 -4.650814
v -4.567189 4.932401 -4.149121
v -4.791905 8.769582 -4.332159
v -4.688655 9.690843 -4.653210
v -0.297509 10.238608 0.857227
v -0.535111 10.112859 -4.189130
v -0.317433 9.854106 -8.508081
vt 0.713862 0.522397
vt 0.712410 0.675884
vt 0.614190 0.635552
vt 0.619004 0.534622
vt 0.766966 0.683355
vt 0.748985 0.574249
vt 0.724689 0.746058
vt 0.627386 0.730098
vt 0.480007 0.623957
vt 0.474271 0.518420
vt 0.724698 0.512354
vt 0.627291 0.514925
vt 0.760287 0.726843
vt 0.758431 0.496457
vt 0.631950 0.751521
vt 0.725376 0.769996
vt 0.460216 0.734056
vt 0.270824 0.626695
vt 0.276607 0.523061
vt 0.475249 0.504646
vt 0.753029 0.482638
vt 0.760494 0.758352
vt 0.463466 0.752732
vt 0.272907 0.737723
vt 0.260173 0.523926
vt 0.258311 0.630098
vt 0.275030 0.506548
vt 0.744010 0.776030
vt 0.260048 0.751059
vt 0.257039 0.739856
vt 0.523123 0.145220
vt 0.536588 0.260520
vt 0.290534 0.245163
vt 0.297165 0.143313
vt 0.645591 0.145723
vt 0.637148 0.270861
vt 0.301533 0.267307
vt 0.526077 0.286417
vt 0.256739 0.250466
vt 0.263033 0.146756
vt 0.510217 0.035593
vt 0.303728 0.031335
vt 0.750842 0.152390
vt 0.744158 0.272864
vt 0.634162 0.285382
vt 0.652484 0.047640
vt 0.268765 0.276097
vt 0.270420 0.043287
vt 0.508041 0.024491
vt 0.321819 0.017035
vt 0.766584 0.261445
vt 0.775280 0.146026
vt 0.743479 0.293357
vt 0.742359 0.053076
vt 0.652796 0.037425
vt 0.765752 0.294555
vt 0.773357 0.063739
vt 0.738754 0.038622
vt 0.767640 0.039844
vt 0.143944 0.517191
vt 0.270404 0.371369
vt 0.849950 0.663383
vt 0.134550 0.627261
vt 0.832578 0.734492
vt 0.142976 0.502156
vt 0.485315 0.400144
vt 0.143158 0.727629
vt 0.037975 0.522971
vt 0.027686 0.626839
vt 0.043025 0.504086
vt 0.180095 0.752649
vt 0.808263 0.757772
vt 0.032636 0.730538
vt 0.098812 0.757748
vt 0.064553 0.744272
vt 0.634953 0.851141
vt 0.950568 0.493613
vt 0.768470 0.399567
vt 0.721236 0.848577
vt 0.475447 0.856458
vt 0.974467 0.519680
vt 0.739439 0.831719
vt 0.953723 0.764471
vt 0.721921 0.961243
vt 0.635353 0.960309
vt 0.281842 0.833282
vt 0.984939 0.737508
vt 0.486727 0.959289
vt 0.758153 0.827138
vt 0.750894 0.958868
vt 0.977418 0.647163
vt 0.721972 0.977486
vt 0.636037 0.986810
vt 0.271602 0.936448
vt 0.490865 0.976567
vt 0.304497 0.972774
vt 0.287028 0.992428
vt 0.256347 0.948825
vt 0.254271 0.980765
vt 0.731551 0.407222
vt 0.844936 0.503595
vt 0.617837 0.409923
vn -0.998386 0.025916 -0.050533
vn -0.999167 -0.004164 -0.040604
vn -0.999998 0.001766 -0.000479
vn -0.999053 0.040746 0.015280
vn 0.999700 -0.023687 -0.006161
vn 0.994948 0.100181 -0.006528
vn 0.995685 0.076308 0.052816
vn 0.998837 -0.027167 0.039841
vn -0.006695 0.104713 0.994480
vn -0.071727 0.118957 0.990305
vn -0.106832 0.006219 0.994258
vn 0.000770 0.004285 0.999991
vn -0.022247 -0.999739 -0.005222
vn -0.248361 -0.968658 0.004345
vn -0.320746 -0.946311 -0.040215
vn -0.014759 -0.997916 -0.062815
vn -0.029852 0.996955 -0.072045
vn -0.087233 0.993791 -0.069064
vn -0.254913 0.966947 -0.005672
vn -0.035041 0.999321 -0.011410
vn -0.996371 -0.049642 -0.069140
vn -0.996714 -0.079998 -0.012741
vn -0.375345 0.005069 -0.926871
vn -0.248583 -0.001846 -0.968609
vn 0.002889 -0.073847 -0.997266
vn -0.010641 -0.009428 -0.999899
vn -0.261067 -0.419127 -0.869584
vn -0.027790 -0.542164 -0.839813
vn -0.035332 -0.954605 -0.295773
vn -0.098068 -0.945147 -0.311575
vn -0.044510 -0.998937 0.012009
vn -0.198949 -0.979853 0.017562
vn 0.050278 -0.998726 -0.004341
vn 0.347723 -0.935029 -0.069355
vn 0.399393 -0.916370 -0.027396
vn 0.036927 -0.999165 -0.017515
vn 0.997165 -0.016765 -0.073352
vn 0.987694 0.140708 -0.068280
vn 0.991975 0.123234 0.028254
vn 0.999550 -0.016471 0.025069
vn -0.040311 -0.995558 0.085082
vn -0.119668 -0.987691 0.100734
vn 0.993714 -0.110793 0.016034
vn 0.983965 -0.170208 -0.053312
vn 0.992125 -0.125238 -0.001735
vn 0.369828 -0.929095 -0.003133
vn -0.005191 -0.999986 0.001308
vn 0.990875 -0.127292 0.044302
vn 0.347165 -0.936683 0.045848
vn -0.051749 -0.989001 0.138564
vn 0.083270 -0.661502 0.745306
vn 0.325909 -0.088293 0.941269
vn 0.181723 0.079381 0.980141
vn 0.252438 -0.002662 0.967609
vn 0.076316 0.991658 0.103873
vn 0.630135 0.776434 0.008907
vn -0.004977 -0.121832 0.992538
vn -0.102679 -0.153419 0.982812
vn 0.284619 -0.110855 -0.952209
vn 0.090139 -0.650228 -0.754373
vn 0.175295 -0.018710 -0.984338
vn -0.984433 -0.145661 0.098357
vn -0.994547 0.016672 0.102948
vn -0.988317 0.118974 0.095261
vn -0.017869 0.159260 -0.987075
vn 0.199182 0.018811 -0.979782
vn -0.106897 0.202394 -0.973453
vn -0.832206 -0.031840 -0.553551
vn -0.844028 0.459779 -0.276079
vn -0.005407 0.996541 0.082926
vn -0.162514 0.984137 0.071154
vn 0.053823 0.777377 -0.626729
vn 0.116916 0.988448 -0.096439
vn 0.147634 0.989028 -0.005331
vn 0.212170 0.977227 0.003502
vn -0.999762 0.016925 -0.013779
vn -0.993877 -0.110196 -0.008079
vn -0.993964 0.109459 -0.007408
vn -0.188447 0.982071 0.004893
vn -0.017622 0.999821 0.006854
s 1
g polySurface1
usemtl lambert6SG
f 1/1/1 22/2/2 75/3/3 76/4/4
f 55/31/5 44/32/6 8/33/7 54/34/8
f 50/60/9 11/25/10 51/26/11 52/63/12
f 34/76/13 35/15/14 16/16/15 29/79/16
f 80/100/17 19/21/18 77/12/19 79/102/20
f 22/2/2 2/7/21 74/8/22 75/3/3
f 24/13/23 2/7/21 22/2/2 25/5/24
f 5/64/25 24/13/23 25/5/24 26/62/26
f 24/13/23 27/22/27 16/16/15 2/7/21
f 27/22/27 24/13/23 5/64/25 28/72/28
f 31/82/29 29/79/16 16/16/15 32/28/30
f 41/80/31 42/23/32 35/15/14 34/76/13
f 17/84/33 36/92/34 37/93/35 33/85/36
f 57/43/37 7/44/38 39/36/39 56/35/40
f 30/86/41 15/29/42 42/23/32 41/80/31
f 38/46/43 37/55/35 36/58/34 6/54/44
f 56/35/40 39/36/39 44/32/6 55/31/5
f 37/55/35 38/46/43 43/41/45 45/49/46
f 45/95/46 40/88/47 33/85/36 37/93/35
f 45/49/46 43/41/45 9/42/48 46/50/49
f 46/96/49 14/94/50 40/88/47 45/95/46
f 47/98/51 14/94/50 9/97/48 13/99/52
f 8/33/7 10/39/53 53/40/54 54/34/8
f 21/47/55 10/39/53 8/33/7 48/37/56
f 10/68/53 50/60/9 52/63/12 53/69/54
f 14/94/50 30/86/41 41/80/31 40/88/47
f 34/76/13 33/85/36 40/88/47 41/80/31
f 34/76/13 29/79/16 17/84/33 33/85/36
f 49/67/57 30/71/41 14/74/50 47/75/51
f 30/71/41 49/67/57 12/30/58 15/29/42
f 32/28/30 27/22/27 28/89/28 31/82/29
f 52/63/12 51/26/11 12/30/58 49/67/57
f 53/69/54 52/63/12 49/67/57 13/73/52
f 54/34/8 53/40/54 13/48/52 9/42/48
f 43/41/45 55/31/5 54/34/8 9/42/48
f 38/46/43 56/35/40 55/31/5 43/41/45
f 6/54/44 57/43/37 56/35/40 38/46/43
f 28/72/28 5/64/25 59/87/59 58/83/60
f 6/54/44 36/58/34 58/59/60 59/57/59
f 5/64/25 26/62/26 60/91/61 59/87/59
f 3/24/62 12/30/58 51/26/11 23/18/63
f 11/25/10 4/19/64 23/18/63 51/26/11
f 26/62/26 61/101/65 62/81/66 60/91/61
f 63/14/67 61/101/65 26/62/26 25/5/24
f 62/51/66 7/44/38 57/43/37 60/52/61
f 60/52/61 57/43/37 6/54/44 59/57/59
f 25/5/24 22/2/2 1/1/1 64/6/68
f 1/1/1 65/11/69 63/14/67 64/6/68
f 65/11/69 1/1/1 76/4/4 77/12/19
f 66/65/70 50/60/9 10/68/53 21/70/55
f 20/27/71 11/25/10 50/60/9 66/65/70
f 7/44/38 62/51/66 67/56/72 18/53/73
f 68/45/74 39/36/39 7/44/38 18/53/73
f 39/36/39 68/45/74 69/38/75 44/32/6
f 48/37/56 8/33/7 44/32/6 69/38/75
f 71/9/76 70/17/77 3/24/62 23/18/63
f 72/10/78 71/9/76 23/18/63 4/19/64
f 73/20/79 72/10/78 4/19/64 20/27/71
f 75/3/3 74/8/22 70/17/77 71/9/76
f 76/4/4 75/3/3 71/9/76 72/10/78
f 77/12/19 76/4/4 72/10/78 73/20/79
f 35/15/14 74/8/22 2/7/21 16/16/15
f 74/8/22 35/15/14 42/23/32 70/17/77
f 70/17/77 42/23/32 15/29/42 3/24/62
f 78/66/80 73/20/79 20/27/71 66/61/70
f 79/102/20 77/12/19 73/20/79 78/66/80
f 69/38/75 78/66/80 66/61/70 21/47/55
f 68/45/74 79/102/20 78/66/80 69/38/75
f 18/53/73 80/100/17 79/102/20 68/45/74
f 80/100/17 61/78/65 63/14/67 19/21/18
f 19/21/18 63/14/67 65/11/69 77/12/19
f 61/78/65 80/100/17 18/53/73 67/56/72
f 62/81/66 61/101/65 67/77/72
f 63/14/67 25/5/24 64/6/68
f 69/38/75 21/47/55 48/37/56
f 46/96/49 9/97/48 14/94/50
f 47/75/51 13/73/52 49/67/57
f 15/29/42 12/30/58 3/24/62
f 16/16/15 27/22/27 32/28/30
f 29/79/16 58/90/60 36/92/34 17/84/33
f 29/79/16 31/82/29 28/89/28 58/90/60
f 4/19/64 11/25/10 20/27/71
